<svg data-v-0dd9719b="" version="1.0" xmlns="http://www.w3.org/2000/svg" xmlns:xlink="http://www.w3.org/1999/xlink" width="100%" height="100%" viewBox="0 0 340.000000 250.000000" preserveAspectRatio="xMidYMid meet" color-interpolation-filters="sRGB" style="margin: auto;"> <rect data-v-0dd9719b="" x="0" y="0" width="100%" height="100%" fill="#fff" fill-opacity="1" class="background"></rect> <rect data-v-0dd9719b="" x="0" y="0" width="100%" height="100%" fill="url(#watermark)" fill-opacity="1" class="watermarklayer"></rect> <g data-v-0dd9719b="" fill="#333" class="icon-text-wrapper icon-svg-group iconsvg" transform="translate(55.411399841308594,101.27858543395996)"><g class="iconsvg-imagesvg" transform="translate(0,0)"><g><rect fill="#333" fill-opacity="0" stroke-width="2" x="0" y="0" width="60" height="47.44283138817725" class="image-rect"></rect> <svg x="0" y="0" width="60" height="47.44283138817725" filtersec="colorsb4969918794" class="image-svg-svg primary" style="overflow: visible;"><svg xmlns="http://www.w3.org/2000/svg" viewBox="0 0 144.72999572753906 114.44000244140625"><path fill="#74c6be" d="M0 0h23.56v114.44H0z"></path><path fill="#4d4398" d="M29.17 18.51h23.56v77.42H29.17z"></path><path fill="#00a0da" d="M60.59 30.85h23.56v52.73H60.59z"></path><path fill="#74c6be" d="M144.73 114.44h-23.56V0h23.56z"></path><path fill="#4d4398" d="M115.57 95.93H92.01V18.51h23.56z"></path></svg></svg> <!----></g></g> <g transform="translate(67,0.05016517639160156)"><g data-gra="path-name" fill-rule="" class="tp-name iconsvg-namesvg" transform="translate(0,0)"><g transform="scale(1)"><g><path d="M12.2-23.4L12.2-13.5C12.2-12.64 12.69-12.15 13.54-12.15L27.86-12.15C28.71-12.15 29.2-12.64 29.2-13.5L29.2-23.4C29.2-24.25 28.71-24.75 27.86-24.75L27.72-24.75C26.95-24.75 26.64-25.15 27-25.61 27.45-26.14 27.63-26.59 27.63-27.27L27.63-29.11C27.63-29.97 27.13-30.46 26.28-30.46L19.98-30.46C19.3-30.46 18.95-30.73 19.17-31.18 19.39-31.63 18.77-31.9 17.73-31.9L13.77-31.9C12.73-31.9 12.33-31.27 12.78-30.33L13.05-29.79C13.23-29.34 13.23-28.98 13.05-28.57L12.42-27.27C11.97-26.32 12.38-25.7 13.41-25.7L15.52-25.7C16.02-25.7 16.38-25.83 16.65-26.05 17.01-26.37 17.28-26.59 17.73-26.59L21.06-26.59C21.82-26.59 22.05-26.1 21.6-25.52L21.42-25.29C21.15-24.93 20.79-24.75 20.34-24.75L13.54-24.75C12.69-24.75 12.2-24.25 12.2-23.4ZM8.91-24.75L3.19-23.31C2.38-23.09 2.02-22.59 2.02-21.78L2.02-19.39C2.02-18.45 2.61-18.04 3.51-18.27L3.55-18.27C3.55-18.27 3.6-17.95 3.6-17.37L3.6-0.99C3.6-0.14 4.09 0.36 4.95 0.36L9.04 0.36C9.9 0.36 10.39-0.14 10.39-0.99L10.39-23.58C10.39-24.52 9.81-24.97 8.91-24.75ZM13.09 0.32L16.43 0.32C17.14 0.32 17.64 0 18-0.63L19.62-3.65C19.98-4.27 20.56-4.32 20.88-3.6L22.23-0.67C22.54 0.04 23.04 0.32 23.8 0.32L27.18 0.32C28.21 0.32 28.62-0.32 28.17-1.26L26.05-5.71C25.79-6.34 26.05-6.79 26.73-6.79L27.68-6.79C28.53-6.79 29.02-7.29 29.02-8.14L29.02-9.09C29.02-9.95 28.53-10.44 27.68-10.44L24.61-10.44C23.89-10.44 23.54-10.71 23.71-11.07 23.89-11.43 23.22-11.7 22.18-11.7L18.99-11.7C18.27-11.7 17.73-11.43 17.37-10.75 17.23-10.53 16.96-10.44 16.47-10.44L13.28-10.44C12.42-10.44 11.92-9.95 11.92-9.09L11.92-8.14C11.92-7.29 12.42-6.79 13.28-6.79L13.95-6.79C14.63-6.79 14.89-6.3 14.58-5.71L12.15-1.3C11.65-0.36 12.06 0.32 13.09 0.32ZM30.02-20.84L30.02-19.39C30.02-18.54 30.51-18.04 31.36-18.04L31.45-18.04C32.04-18.04 32.35-17.73 32.35-17.14L32.35-4.37C32.35-3.92 32.22-3.6 31.95-3.24L30.29-1.26C29.56-0.36 29.97 0.4 31.09 0.4L35.37 0.4C37.13 0.4 38.43-0.81 38.43-2.56L38.43-17.14C38.43-17.73 38.61-18.04 38.92-18.04 39.24-18.04 39.42-18.54 39.42-19.39L39.42-20.84C39.42-21.69 38.92-22.18 38.07-22.18L31.36-22.18C30.51-22.18 30.02-21.69 30.02-20.84ZM8.91-31.59L3.15-30.15C2.34-29.92 1.98-29.43 1.98-28.62L1.98-26.23C1.98-25.29 2.56-24.88 3.46-25.11L9.22-26.55C10.04-26.77 10.39-27.27 10.39-28.08L10.39-30.46C10.39-31.41 9.81-31.81 8.91-31.59ZM30.6-29.7L30.6-28.26C30.6-27.4 31.09-26.91 31.95-26.91L37.48-26.91C38.34-26.91 38.84-27.4 38.84-28.26L38.84-29.7C38.84-30.55 38.34-31.05 37.48-31.05L31.95-31.05C31.09-31.05 30.6-30.55 30.6-29.7ZM17.82-21.6L17.91-21.6C18.5-21.6 18.81-21.29 18.81-20.7L18.81-20.65C18.81-20.07 18.5-19.75 17.91-19.75L17.82-19.75C17.23-19.75 16.92-20.07 16.92-20.65L16.92-20.7C16.92-21.29 17.23-21.6 17.82-21.6ZM24.43-20.7L24.43-20.65C24.43-20.07 24.12-19.75 23.58-19.75 23.04-19.75 22.72-20.07 22.72-20.65L22.72-20.7C22.72-21.29 23.04-21.6 23.58-21.6 24.12-21.6 24.43-21.29 24.43-20.7ZM16.92-16.29C16.92-16.83 17.23-17.1 17.82-17.1L17.91-17.1C18.5-17.1 18.81-16.79 18.81-16.29 18.81-15.75 18.5-15.43 17.91-15.43L17.82-15.43C17.23-15.43 16.92-15.75 16.92-16.29ZM22.72-16.29C22.72-16.83 23.04-17.1 23.58-17.1 24.12-17.1 24.43-16.79 24.43-16.29 24.43-15.75 24.12-15.43 23.58-15.43 23.04-15.43 22.72-15.75 22.72-16.29ZM61.83-0.49L78.61-0.49C79.47-0.49 79.97-0.99 79.97-1.84L79.97-29.65C79.97-30.51 79.47-31 78.61-31L60.93-31C59.85-31 59.49-30.29 60.03-29.38L60.21-29.07C60.44-28.66 60.52-28.39 60.52-27.99L60.48-1.84C60.48-0.99 60.97-0.49 61.83-0.49ZM52.42-26.14L51.66-20.02 51.66-17.5C51.66-16.65 52.16-16.16 53.01-16.16 53.19-16.16 53.32-15.84 53.28-15.21L52.83-9.31C52.78-8.78 52.52-8.46 52.11-8.46 51.7-8.46 51.44-7.96 51.44-7.11L51.44-5.98C51.44-5.13 51.93-4.63 52.78-4.63L56.97-4.63C57.83-4.63 58.32-5.08 58.36-5.94L59.13-16.16 59.13-18.68C59.13-19.53 58.63-20.02 57.78-20.02 57.55-20.02 57.42-20.34 57.51-20.97L58.27-27.31 58.27-29.79C58.27-30.64 57.78-31.14 56.92-31.14L45.54-31.14C44.68-31.14 44.19-30.64 44.19-29.79L44.19-1.03C44.19-0.18 44.68 0.32 45.54 0.32L49.09 0.32C49.95 0.32 50.45-0.14 50.45-1.03L50.49-26.19C50.49-26.77 50.8-27.09 51.39-27.09L51.61-27.09C52.2-27.09 52.52-26.77 52.42-26.14ZM67.36-5.89L67.36-13.05C67.36-13.63 67.68-13.95 68.27-13.95L72.27-13.95C72.85-13.95 73.17-13.63 73.17-13.05L73.17-5.89C73.17-5.31 72.85-5 72.27-5L68.27-5C67.68-5 67.36-5.31 67.36-5.89ZM68.22-26.5L72.22-26.5C72.81-26.5 73.13-26.19 73.13-25.61L73.17-19.35C73.17-18.77 72.85-18.45 72.27-18.45L68.27-18.45C67.68-18.45 67.36-18.77 67.36-19.35L67.32-25.61C67.32-26.19 67.63-26.5 68.22-26.5ZM94.41-31.68L86.85-30.11C86.08-29.92 85.63-29.43 85.63-28.62L85.63-26.23C85.63-25.29 86.22-24.84 87.12-25.02L88.06-25.2C88.65-25.33 89.05-25.06 89.05-24.43L89.05-13.68C89.05-12.82 89.55-12.33 90.41-12.33L94.5-12.33C95-12.33 95.35-12.42 95.58-12.6 95.98-12.91 96.08-13.18 96.52-13.18L98.41-13.18C99-13.18 99.31-12.87 99.31-12.33 99.31-11.74 98.91-11.47 98.37-11.47L86.98-11.47C86.13-11.47 85.63-10.98 85.63-10.13L85.63-8.55C85.63-7.69 86.13-7.2 86.98-7.2L89.95-7.2C90.77-7.2 90.99-6.61 90.45-6.08L86.4-2.02C85.55-1.17 85.91-0.36 87.08-0.36L92.34-0.36C93.02-0.36 93.51-0.54 94-1.03L98.19-5.26C98.73-5.85 99.27-5.63 99.27-4.81L99.31-0.94C99.31-0.04 99.81 0.4 100.66 0.4L106.52 0.4C107.37 0.4 107.86-0.09 107.86-0.94L107.86-4.68C107.86-5.49 108.45-5.67 108.99-5.13L113.04-1.03C113.53-0.54 114.03-0.36 114.7-0.36L119.97-0.36C121.14-0.36 121.5-1.17 120.64-2.02L116.59-6.08C116.05-6.61 116.28-7.2 117.09-7.2L120.19-7.2C121.05-7.2 121.54-7.69 121.54-8.55L121.54-10.13C121.54-10.98 121.05-11.47 120.19-11.47L108.77-11.47C108.18-11.47 107.82-11.74 107.86-12.33 107.86-12.91 108.22-13.18 108.77-13.18L118.48-13.18C119.34-13.18 119.83-13.68 119.83-14.54L119.83-15.25C119.83-16.11 119.34-16.61 118.48-16.61L111.33-16.61C110.75-16.61 110.43-16.79 110.43-17.05 110.43-17.32 110.75-17.46 111.33-17.46L118.48-17.46C119.34-17.46 119.83-17.95 119.83-18.81L119.83-19.53C119.83-20.38 119.34-20.88 118.48-20.88L111.33-20.88C110.75-20.88 110.43-21.06 110.43-21.33 110.43-21.64 110.75-21.73 111.33-21.73L118.48-21.73C119.34-21.73 119.83-22.23 119.83-23.09L119.83-23.8C119.83-24.66 119.34-25.15 118.48-25.15L111.33-25.15C110.75-25.15 110.43-25.33 110.43-25.61 110.43-25.88 110.75-26.01 111.33-26.01L118.48-26.01C119.34-26.01 119.83-26.5 119.83-27.36L119.83-28.08C119.83-28.93 119.34-29.43 118.48-29.43L111.33-29.43C110.75-29.43 110.43-29.74 110.43-30.33L110.43-30.73C110.43-31.54 109.94-31.99 109.08-31.99L104.22-31.99C103-31.99 102.69-31.18 103.55-30.33L103.59-30.33 103.59-29.88C103.59-29.56 103.23-29.43 102.69-29.43L96.8-29.43C96.21-29.43 95.89-29.74 95.89-30.33L95.89-30.73C95.89-31.5 95.31-31.86 94.41-31.68ZM96.75-17.46L102.69-17.46C103.27-17.46 103.59-17.28 103.59-17.05 103.59-16.79 103.27-16.61 102.69-16.61L96.8-16.61C96.21-16.61 95.85-16.74 95.89-17.05 95.89-17.37 96.21-17.46 96.75-17.46ZM96.8-21.73L102.69-21.73C103.23-21.73 103.55-21.6 103.59-21.33 103.59-21.02 103.23-20.88 102.64-20.88L96.8-20.88C96.21-20.88 95.89-21.06 95.89-21.33 95.89-21.64 96.21-21.73 96.8-21.73ZM96.8-26.01L102.69-26.01C103.23-26.01 103.55-25.88 103.59-25.61 103.59-25.29 103.23-25.15 102.64-25.15L96.8-25.15C96.21-25.15 95.89-25.33 95.89-25.61 95.89-25.88 96.21-26.01 96.8-26.01ZM148.41-31.99L141.44-31.99C140.35-31.99 139.95-31.27 140.53-30.38L140.89-29.79C141.12-29.38 141.21-29.11 141.21-28.71L141.21-18.04C141.21-17.59 141.07-17.28 140.8-16.92L128.02-1.26C127.3-0.36 127.66 0.4 128.79 0.4L135.54 0.4C136.21 0.4 136.71 0.22 137.16-0.36L144.99-9.9C145.39-10.35 145.84-10.44 146.25-9.95L154.62-0.36C155.07 0.18 155.61 0.4 156.28 0.4L162.99 0.4C164.16 0.4 164.52-0.4 163.75-1.26L150.16-17.1C149.89-17.41 149.76-17.77 149.76-18.22L149.76-30.64C149.76-31.5 149.26-31.99 148.41-31.99ZM131.31-15.75L136.75-15.75C137.66-15.75 138.15-16.29 137.97-17.23L135.9-28.21C135.76-29.02 135.27-29.43 134.46-29.43L128.56-29.43C127.48-29.43 127.08-28.71 127.62-27.81L127.71-27.68C127.89-27.31 127.98-27.04 128.07-26.64L129.87-16.96C130-16.16 130.5-15.75 131.31-15.75ZM161.1-16.96L163.17-27.95C163.35-28.89 162.85-29.43 161.95-29.43L155.43-29.43C154.35-29.43 153.99-28.75 154.53-27.81L154.57-27.72C154.8-27.36 154.84-27 154.75-26.55L153.04-17.23C152.86-16.29 153.36-15.75 154.26-15.75L159.66-15.75C160.47-15.75 160.96-16.16 161.1-16.96Z" transform="translate(-1.9800000190734863, 31.989999771118164)"></path></g> <!----> <!----> <!----> <!----> <!----> <!----> <!----></g></g> <g data-gra="path-slogan" fill-rule="" class="tp-slogan iconsvg-slogansvg" fill="#333" transform="translate(27.93360137939453,38.38999938964844)"><!----> <!----> <g transform="scale(1, 1)"><g transform="scale(1)"><path d="M2.06-5.06L6.56-5.06L6.56-8.58L7.73-8.58L7.73 0L6.56 0L6.56-3.98L2.06-3.98L2.06 0L0.89 0L0.89-8.58L2.06-8.58L2.06-5.06ZM10.83-1.03L15.98-1.03L15.98 0L9.66 0L9.66-8.58L15.89-8.58L15.89-7.59L10.83-7.59L10.83-4.92L15.52-4.92L15.52-3.89L10.83-3.89L10.83-1.03ZM18.89-8.58L23.20-1.64L23.20-8.58L24.33-8.58L24.33 0L23.02 0L18.66-6.94L18.61-6.94L18.61 0L17.48 0L17.48-8.58L18.89-8.58ZM32.53-3.61L29.91-3.61L29.91-4.59L33.66-4.59L33.66 0L32.91 0L32.63-1.08Q31.64 0.09 29.81 0.14L29.81 0.14Q28.08 0.14 27.14-0.75L27.14-0.75Q25.73-2.06 25.78-4.36L25.78-4.36Q26.11-8.63 29.86-8.81L29.86-8.81Q33.05-8.63 33.52-6L33.52-6L32.39-6Q31.92-7.78 29.81-7.83L29.81-7.83Q27.14-7.64 27-4.31L27-4.31Q27-0.75 29.86-0.75L29.86-0.75Q30.89-0.75 31.64-1.31L31.64-1.31Q32.58-2.06 32.53-3.61L32.53-3.61ZM42.38-8.58L39.14-3.47L39.14 0L37.97 0L37.97-3.47L34.73-8.58L36.09-8.58L38.53-4.45L41.02-8.58L42.38-8.58ZM49.08 0L48.23-2.48L44.77-2.48L43.88 0L42.70 0L45.94-8.58L47.25-8.58L50.34 0L49.08 0ZM46.50-7.31L45.14-3.52L47.81-3.52L46.55-7.31L46.50-7.31ZM52.78-8.58L57.09-1.64L57.09-8.58L58.22-8.58L58.22 0L56.91 0L52.55-6.94L52.50-6.94L52.50 0L51.38 0L51.38-8.58L52.78-8.58ZM66.42-3.61L63.80-3.61L63.80-4.59L67.55-4.59L67.55 0L66.80 0L66.52-1.08Q65.53 0.09 63.70 0.14L63.70 0.14Q61.97 0.14 61.03-0.75L61.03-0.75Q59.63-2.06 59.67-4.36L59.67-4.36Q60-8.63 63.75-8.81L63.75-8.81Q66.94-8.63 67.41-6L67.41-6L66.28-6Q65.81-7.78 63.70-7.83L63.70-7.83Q61.03-7.64 60.89-4.31L60.89-4.31Q60.89-0.75 63.75-0.75L63.75-0.75Q64.78-0.75 65.53-1.31L65.53-1.31Q66.47-2.06 66.42-3.61L66.42-3.61ZM71.95-1.92L71.95-2.77L73.03-2.77L73.03-2.16Q73.03-0.75 74.34-0.75L74.34-0.75Q75.70-0.75 75.70-2.25L75.70-2.25L75.70-8.58L76.88-8.58L76.88-2.30Q76.83 0.09 74.39 0.14L74.39 0.14Q72.09 0.09 71.95-1.92L71.95-1.92ZM78.84-8.58L80.02-8.58L80.02 0L78.84 0L78.84-8.58ZM83.16-5.06L87.66-5.06L87.66-8.58L88.83-8.58L88.83 0L87.66 0L87.66-3.98L83.16-3.98L83.16 0L81.98 0L81.98-8.58L83.16-8.58L83.16-5.06ZM96.28-3.19L96.28-8.58L97.45-8.58L97.45-3.05Q97.31 0.05 93.94 0.14L93.94 0.14Q90.80 0.05 90.66-2.86L90.66-2.86L90.66-8.58L91.83-8.58L91.83-3.19Q91.88-0.84 93.98-0.80L93.98-0.80Q96.28-0.84 96.28-3.19L96.28-3.19ZM106.03-4.27L106.03-4.27Q105.84-7.64 103.03-7.83L103.03-7.83Q100.17-7.69 100.03-4.27L100.03-4.27Q100.17-0.94 103.03-0.80L103.03-0.80Q105.84-0.98 106.03-4.27ZM107.20-4.27L107.20-4.27Q106.92 0 103.03 0.14L103.03 0.14Q99.09 0 98.81-4.27L98.81-4.27Q99.05-8.72 103.03-8.81L103.03-8.81Q106.92-8.67 107.20-4.27Z" transform="translate(-0.890625, 8.8125)"></path></g></g></g></g></g><defs v-gra="od"></defs></svg>